<?xml version="1.0" encoding="utf-8"?>
<!-- Generator: Adobe Illustrator 25.0.1, SVG Export Plug-In . SVG Version: 6.00 Build 0)  -->
<svg version="1.1" id="Ebene_1" xmlns="http://www.w3.org/2000/svg" xmlns:xlink="http://www.w3.org/1999/xlink" x="0px" y="0px"
	 viewBox="0 0 848.38 441.23" style="enable-background:new 0 0 848.38 441.23;" xml:space="preserve">
<style type="text/css">
	.st0{fill:#EA553C;}
	.st1{fill:#FBEEC2;}
	.st2{fill:#A1BB8E;}
	.st3{fill:#3F5D61;}
	.st4{fill:#55714E;}
	.st5{fill:#0D1D1B;}
</style>
<g>
	<path class="st0" d="M268.72,259.16c-6.25-3.25-13.97-4.88-23.16-4.88c-8.98,0-16.88,1.65-23.7,4.96
		c-6.82,3.31-12.16,8-16.03,14.09c-3.87,6.09-5.81,13.22-5.81,21.37c0,8.26,1.99,15.39,5.96,21.37c3.97,5.99,9.42,10.61,16.34,13.86
		c6.92,3.25,14.87,4.88,23.85,4.88c7.85,0,14.56-1.16,20.14-3.48c5.58-2.32,10.04-5.52,13.4-9.6c3.35-4.08,5.45-8.75,6.27-14.02
		h-16.88c-1.34,3.82-4.05,6.95-8.13,9.37c-4.08,2.43-9.11,3.64-15.1,3.64c-5.47,0-10.22-0.98-14.25-2.94
		c-4.03-1.96-7.23-4.65-9.6-8.05c-2.38-3.41-3.82-7.28-4.34-11.62h68.62c0.52-9.81-0.72-17.94-3.72-24.39
		C279.59,267.27,274.97,262.41,268.72,259.16z M218.77,286.65c1.34-5.37,4.28-9.76,8.83-13.17c4.54-3.41,10.38-5.11,17.5-5.11
		c6.82,0,12.34,1.6,16.57,4.8c4.23,3.2,6.61,7.69,7.12,13.48H218.77z"/>
	<path class="st0" d="M764.82,302.45c-1.6-2.58-3.72-4.67-6.35-6.27c-2.63-1.6-5.63-2.97-8.98-4.1c-3.36-1.13-6.89-2.17-10.61-3.1
		c-4.13-0.93-7.69-1.83-10.69-2.71c-3-0.88-5.29-1.96-6.89-3.25c-1.6-1.29-2.4-3.07-2.4-5.34c0-2.79,1.24-5.01,3.72-6.66
		c2.48-1.65,6.09-2.48,10.84-2.48c4.85,0,8.47,0.93,10.84,2.79c2.37,1.86,3.97,4.8,4.8,8.83h15.33c0-5.06-1.16-9.55-3.48-13.48
		c-2.32-3.92-5.76-6.97-10.3-9.14c-4.54-2.17-10.22-3.25-17.04-3.25c-4.65,0-8.96,0.54-12.93,1.63c-3.98,1.08-7.43,2.61-10.38,4.57
		c-2.94,1.96-5.24,4.36-6.89,7.2c-1.65,2.84-2.48,6.02-2.48,9.53c0,3.82,0.88,7.05,2.63,9.68c1.75,2.63,4.13,4.83,7.12,6.58
		c2.99,1.76,6.35,3.18,10.07,4.26s7.54,2.09,11.46,3.02c3.72,0.62,6.84,1.34,9.37,2.17c2.53,0.83,4.44,1.86,5.73,3.1
		c1.29,1.24,1.94,3,1.94,5.27c0,1.76-0.41,3.38-1.24,4.88c-0.83,1.5-2.3,2.63-4.41,3.41c-2.12,0.77-5.09,1.16-8.91,1.16
		c-5.78,0-10.38-1.21-13.78-3.64c-3.41-2.43-5.52-5.55-6.35-9.37H698.3c-0.21,1.55-0.03,3.46,0.54,5.73
		c0.57,2.27,1.63,4.65,3.18,7.12c1.55,2.48,3.77,4.8,6.66,6.97c2.89,2.17,6.48,3.93,10.76,5.27c4.28,1.34,9.47,2.01,15.57,2.01
		c6.71,0,12.47-0.9,17.27-2.71c4.8-1.81,8.49-4.41,11.07-7.82c2.58-3.41,3.87-7.49,3.87-12.24
		C767.22,308.23,766.42,305.03,764.82,302.45z"/>
	<path class="st0" d="M358.4,296.18c-2.63-1.6-5.63-2.97-8.98-4.1c-3.36-1.13-6.89-2.17-10.61-3.1c-4.13-0.93-7.69-1.83-10.69-2.71
		c-3-0.88-5.29-1.96-6.89-3.25c-1.6-1.29-2.4-3.07-2.4-5.34c0-2.79,1.24-5.01,3.72-6.66c2.48-1.65,6.09-2.48,10.84-2.48
		c4.85,0,8.47,0.93,10.84,2.79c2.37,1.86,3.97,4.8,4.8,8.83h15.33c0-5.06-1.16-9.55-3.48-13.48c-2.32-3.92-5.76-6.97-10.3-9.14
		c-4.54-2.17-10.22-3.25-17.04-3.25c-4.65,0-8.96,0.54-12.93,1.63c-3.98,1.08-7.43,2.61-10.38,4.57c-2.94,1.96-5.24,4.36-6.89,7.2
		c-1.65,2.84-2.48,6.02-2.48,9.53c0,3.82,0.88,7.05,2.63,9.68c1.75,2.63,4.13,4.83,7.12,6.58c2.99,1.76,6.35,3.18,10.07,4.26
		s7.54,2.09,11.46,3.02c3.72,0.62,6.84,1.34,9.37,2.17c2.53,0.83,4.44,1.86,5.73,3.1c1.29,1.24,1.94,3,1.94,5.27
		c0,1.76-0.41,3.38-1.24,4.88c-0.83,1.5-2.3,2.63-4.41,3.41c-2.12,0.77-5.09,1.16-8.91,1.16c-5.78,0-10.38-1.21-13.78-3.64
		c-3.41-2.43-5.53-5.55-6.35-9.37h-16.26c-0.21,1.55-0.03,3.46,0.54,5.73c0.57,2.27,1.63,4.65,3.18,7.12
		c1.55,2.48,3.77,4.8,6.66,6.97c2.89,2.17,6.48,3.93,10.76,5.27c4.28,1.34,9.47,2.01,15.57,2.01c6.71,0,12.47-0.9,17.27-2.71
		c4.8-1.81,8.49-4.41,11.07-7.82c2.58-3.41,3.87-7.49,3.87-12.24c0-3.82-0.8-7.02-2.4-9.6C363.15,299.87,361.04,297.78,358.4,296.18
		z"/>
	<path class="st0" d="M437.86,296.18c-2.63-1.6-5.63-2.97-8.98-4.1c-3.36-1.13-6.89-2.17-10.61-3.1c-4.13-0.93-7.69-1.83-10.69-2.71
		c-3-0.88-5.29-1.96-6.89-3.25c-1.6-1.29-2.4-3.07-2.4-5.34c0-2.79,1.24-5.01,3.72-6.66c2.48-1.65,6.09-2.48,10.84-2.48
		c4.85,0,8.47,0.93,10.84,2.79c2.37,1.86,3.97,4.8,4.8,8.83h15.33c0-5.06-1.16-9.55-3.48-13.48c-2.32-3.92-5.76-6.97-10.3-9.14
		c-4.55-2.17-10.22-3.25-17.04-3.25c-4.65,0-8.96,0.54-12.93,1.63c-3.98,1.08-7.43,2.61-10.38,4.57c-2.94,1.96-5.24,4.36-6.89,7.2
		c-1.65,2.84-2.48,6.02-2.48,9.53c0,3.82,0.88,7.05,2.63,9.68c1.75,2.63,4.13,4.83,7.12,6.58c2.99,1.76,6.35,3.18,10.07,4.26
		c3.72,1.08,7.54,2.09,11.46,3.02c3.72,0.62,6.84,1.34,9.37,2.17c2.53,0.83,4.44,1.86,5.73,3.1c1.29,1.24,1.94,3,1.94,5.27
		c0,1.76-0.41,3.38-1.24,4.88c-0.83,1.5-2.3,2.63-4.41,3.41c-2.12,0.77-5.09,1.16-8.91,1.16c-5.78,0-10.38-1.21-13.78-3.64
		c-3.41-2.43-5.52-5.55-6.35-9.37h-16.26c-0.21,1.55-0.03,3.46,0.54,5.73c0.57,2.27,1.63,4.65,3.18,7.12s3.77,4.8,6.66,6.97
		c2.89,2.17,6.48,3.93,10.76,5.27c4.28,1.34,9.47,2.01,15.57,2.01c6.71,0,12.47-0.9,17.27-2.71c4.8-1.81,8.49-4.41,11.07-7.82
		c2.58-3.41,3.87-7.49,3.87-12.24c0-3.82-0.8-7.02-2.4-9.6C442.61,299.87,440.49,297.78,437.86,296.18z"/>
	<path class="st0" d="M565.79,259.08c-6.76-3.2-14.48-4.8-23.16-4.8s-16.42,1.6-23.23,4.8c-6.82,3.2-12.21,7.82-16.19,13.86
		c-3.98,6.04-5.96,13.3-5.96,21.76c0,8.57,1.99,15.85,5.96,21.84c3.97,5.99,9.37,10.53,16.19,13.63c6.82,3.1,14.56,4.65,23.23,4.65
		s16.39-1.55,23.16-4.65c6.76-3.1,12.11-7.64,16.03-13.63c3.92-5.99,5.89-13.27,5.89-21.84c0-8.47-1.96-15.72-5.89-21.76
		C577.9,266.9,572.55,262.28,565.79,259.08z M566.34,308.88c-2.48,3.87-5.78,6.82-9.91,8.83c-4.13,2.01-8.73,3.02-13.78,3.02
		c-5.06,0-9.68-1.01-13.86-3.02s-7.51-4.96-9.99-8.83c-2.48-3.87-3.72-8.6-3.72-14.17c0-5.58,1.26-10.32,3.79-14.25
		c2.53-3.92,5.89-6.92,10.07-8.98c4.18-2.06,8.75-3.1,13.71-3.1c5.16,0,9.78,1.03,13.86,3.1c4.08,2.07,7.36,5.09,9.84,9.06
		c2.48,3.98,3.72,8.7,3.72,14.17C570.05,300.28,568.81,305.01,566.34,308.88z"/>
	<path class="st0" d="M181.37,296.18c-2.63-1.6-5.63-2.97-8.98-4.1c-3.36-1.13-6.89-2.17-10.61-3.1c-4.13-0.93-7.69-1.83-10.69-2.71
		c-3-0.88-5.29-1.96-6.89-3.25c-1.6-1.29-2.4-3.07-2.4-5.34c0-2.79,1.24-5.01,3.72-6.66c2.48-1.65,6.09-2.48,10.84-2.48
		c4.85,0,8.47,0.93,10.84,2.79c2.37,1.86,3.97,4.8,4.8,8.83h15.33c0-5.06-1.16-9.55-3.48-13.48c-2.32-3.92-5.76-6.97-10.3-9.14
		c-4.54-2.17-10.22-3.25-17.04-3.25c-4.65,0-8.96,0.54-12.93,1.63c-3.98,1.08-7.43,2.61-10.38,4.57c-2.94,1.96-5.24,4.36-6.89,7.2
		c-1.65,2.84-2.48,6.02-2.48,9.53c0,3.82,0.88,7.05,2.63,9.68c1.75,2.63,4.13,4.83,7.12,6.58c2.99,1.76,6.35,3.18,10.07,4.26
		s7.54,2.09,11.46,3.02c3.72,0.62,6.84,1.34,9.37,2.17c2.53,0.83,4.44,1.86,5.73,3.1c1.29,1.24,1.94,3,1.94,5.27
		c0,1.76-0.41,3.38-1.24,4.88c-0.83,1.5-2.3,2.63-4.41,3.41c-2.12,0.77-5.09,1.16-8.91,1.16c-5.78,0-10.38-1.21-13.78-3.64
		c-3.41-2.43-5.53-5.55-6.35-9.37h-16.26c-0.21,1.55-0.03,3.46,0.54,5.73c0.57,2.27,1.63,4.65,3.18,7.12
		c1.55,2.48,3.77,4.8,6.66,6.97c2.89,2.17,6.48,3.93,10.76,5.27c4.28,1.34,9.47,2.01,15.57,2.01c6.71,0,12.47-0.9,17.27-2.71
		c4.8-1.81,8.49-4.41,11.07-7.82c2.58-3.41,3.87-7.49,3.87-12.24c0-3.82-0.8-7.02-2.4-9.6C186.12,299.87,184,297.78,181.37,296.18z"
		/>
	<rect x="463.18" y="255.98" class="st0" width="17.66" height="77.13"/>
	<rect x="461.63" y="223.15" class="st0" width="20.91" height="16.73"/>
	<path class="st0" d="M675.61,261.79c-2.74-2.53-6.02-4.41-9.84-5.65c-3.82-1.24-8-1.86-12.55-1.86c-4.75,0-9.11,0.77-13.09,2.32
		c-3.98,1.55-7.41,3.69-10.3,6.43c-2.89,2.74-5.22,5.84-6.97,9.29c-0.96,1.9-1.73,3.85-2.32,5.86v-22.2h-17.5v77.13h17.5v-45.83
		c0.77-2.31,1.95-4.51,3.56-6.6c2.58-3.35,5.91-6.09,9.99-8.21c4.08-2.12,8.6-3.18,13.55-3.18c6.61,0,11.43,1.52,14.48,4.57
		c3.04,3.05,4.57,7.72,4.57,14.02v45.23h17.5v-48.63c0-5.06-0.75-9.47-2.25-13.24C680.46,267.47,678.34,264.32,675.61,261.79z"/>
	<path class="st0" d="M390.16,173.21c0.92-2.26,2.23-4.6,3.95-7.02c2.43-3.41,5.63-6.3,9.6-8.67c3.97-2.37,8.8-3.56,14.48-3.56
		v-16.57c-4.44,0-8.31,0.83-11.62,2.48c-3.31,1.65-6.07,3.79-8.29,6.43c-2.22,2.63-4,5.34-5.34,8.13c-1.25,2.59-2.17,4.96-2.79,7.15
		v-22.48h-17.5v77.13h17.5V173.21z"/>
	<path class="st0" d="M136.3,155.27c2.89,1.39,5.03,3.46,6.43,6.2c1.39,2.74,2.09,6.17,2.09,10.3v44.45h17.5v-50.03
		c0-4.75-0.75-8.91-2.25-12.47c-1.5-3.56-3.62-6.56-6.35-8.98c-2.74-2.43-6.02-4.26-9.84-5.5c-3.82-1.24-8-1.86-12.55-1.86
		c-4.75,0-9.11,0.8-13.09,2.4c-3.98,1.6-7.41,3.74-10.3,6.43c-2.89,2.69-5.22,5.76-6.97,9.22c-0.96,1.9-1.73,3.84-2.32,5.81v-53.13
		h-17.5v108.11h17.5v-45.96c0.72-2.19,1.82-4.27,3.33-6.24c2.53-3.3,5.76-5.94,9.68-7.9c3.92-1.96,8.31-2.94,13.17-2.94
		C129.59,153.18,133.41,153.88,136.3,155.27z"/>
	<polygon class="st0" points="189.74,247.2 208.17,247.2 258.04,139.09 239.3,139.09 214.49,197.02 189.89,139.09 171.3,139.09 
		205.8,215.43 	"/>
	<rect x="433.68" y="106.25" class="st0" width="20.91" height="16.73"/>
	<rect x="435.23" y="139.09" class="st0" width="17.66" height="77.13"/>
	<path class="st0" d="M318.76,217.93c7.33,0,13.89-1.7,19.67-5.11c5.78-3.41,10.38-8.13,13.78-14.17s5.11-12.98,5.11-20.83
		c0-8.05-1.65-15.1-4.96-21.14c-3.31-6.04-7.85-10.76-13.63-14.17c-5.78-3.41-12.44-5.11-19.98-5.11c-6.51,0-11.98,1.06-16.42,3.18
		c-4.44,2.12-8,5.01-10.69,8.67c-2.63,3.59-4.54,7.76-5.73,12.49v-53.61h-17.5v108.11h16.26c0.31-2.37,0.59-5.32,0.85-8.83
		c0.26-3.51,0.39-6.71,0.39-9.6v-6.51c1.24,4.65,3.2,8.98,5.89,13.01c2.68,4.03,6.25,7.31,10.69,9.84
		C306.93,216.66,312.35,217.93,318.76,217.93z M289.17,191.05c-2.17-3.87-3.25-8.29-3.25-13.24c0-5.47,1.11-10.15,3.33-14.02
		c2.22-3.87,5.37-6.87,9.45-8.98c4.08-2.12,9.01-3.18,14.79-3.18c8.26,0,14.66,2.43,19.21,7.28c4.54,4.85,6.82,11.15,6.82,18.9
		c0,5.06-1.08,9.53-3.25,13.4c-2.17,3.87-5.22,6.92-9.14,9.14c-3.93,2.22-8.47,3.33-13.63,3.33c-5.89,0-10.87-1.13-14.95-3.41
		C294.46,198,291.34,194.93,289.17,191.05z"/>
	<path class="st0" d="M521.19,214.13c4.44-2.53,8-5.81,10.69-9.84c2.68-4.03,4.65-8.36,5.89-13.01v6.51c0,2.89,0.15,6.09,0.46,9.6
		c0.31,3.51,0.57,6.45,0.77,8.83h16.26V108.11h-17.5v53.61c-1.19-4.73-3.07-8.9-5.65-12.49c-2.63-3.66-6.2-6.56-10.69-8.67
		c-4.49-2.12-9.99-3.18-16.5-3.18c-7.43,0-14.07,1.7-19.9,5.11c-5.84,3.41-10.43,8.13-13.78,14.17c-3.36,6.04-5.03,13.09-5.03,21.14
		c0,7.85,1.7,14.79,5.11,20.83s8.05,10.76,13.94,14.17c5.89,3.41,12.44,5.11,19.67,5.11C511.33,217.93,516.75,216.66,521.19,214.13z
		 M487.5,191.21c-2.22-3.87-3.33-8.34-3.33-13.4c0-7.74,2.27-14.04,6.82-18.9c4.54-4.85,11-7.28,19.36-7.28
		c5.78,0,10.71,1.06,14.79,3.18c4.08,2.12,7.2,5.11,9.37,8.98c2.17,3.87,3.25,8.55,3.25,14.02c0,4.96-1.06,9.37-3.18,13.24
		c-2.12,3.87-5.24,6.95-9.37,9.22c-4.13,2.27-9.09,3.41-14.87,3.41c-5.16,0-9.71-1.11-13.63-3.33
		C492.79,198.13,489.72,195.08,487.5,191.21z"/>
</g>
</svg>
